# xmcd CD database file generated by OrangeCD 5.2
#
# Track frame offsets:
#	187
#	14672
#	34035
#	50120
#	66510
#	81747
#	106620
#	125092
#	138660
#	157897
#
# Disc length: 2375 seconds
#
# Revision: 2
# Processed by: cddbd v1.5.1PL0 Copyright (c) Steve Scherf et al.
# Submitted via: OrangeCD 5.2
#
DISCID=9209450a
DTITLE=Waylon Jennings - Waymore's Blues (Part II)
DYEAR=1994
DGENRE=Country
TTITLE0=Endangered Species
TTITLE1=Waymore's Blues (Part II)
TTITLE2=This Train (Russell's Song)
TTITLE3=Wild Ones
TTITLE4=No Good For Me
TTITLE5=Old Timer (The Song)
TTITLE6=Up In Arkansas
TTITLE7=Nobody Knows
TTITLE8=Come Back And See Me
TTITLE9=You Don't Mess Around With Me
EXTD=
EXTT0=
EXTT1=
EXTT2=
EXTT3=
EXTT4=
EXTT5=
EXTT6=
EXTT7=
EXTT8=
EXTT9=
PLAYORDER=
